REM DIRINDEX 1\2,1\3,1\4,1\6,1\5\7,1\5\8
REM DIRNAME folder01,folder02,folder03,folder04,folder05,folder06,folder07,folder08
TITLE ""
FILE "DB4500_5th_1A_18.mp3" MP3
  TRACK 01 AUDIO
    TITLE "0:"
    INDEX 01 00:00:00
  TRACK 02 AUDIO
    TITLE "2:cjc114_0512"
    INDEX 01 00:00:03
  TRACK 03 AUDIO
    TITLE "0:"
    INDEX 01 00:01:21
  TRACK 04 AUDIO
    TITLE "3:cjc114_0513"
    INDEX 01 00:01:42
  TRACK 05 AUDIO
    TITLE "0:"
    INDEX 01 00:02:40
  TRACK 06 AUDIO
    TITLE "4:cjc114_0514"
    INDEX 01 00:02:65
  TRACK 07 AUDIO
    TITLE "0:"
    INDEX 01 00:06:37
  TRACK 08 AUDIO
    TITLE "2:cjc114_0515"
    INDEX 01 00:07:11
  TRACK 09 AUDIO
    TITLE "0:"
    INDEX 01 00:08:17
  TRACK 10 AUDIO
    TITLE "3:cjc114_0516"
    INDEX 01 00:08:42
  TRACK 11 AUDIO
    TITLE "0:"
    INDEX 01 00:09:44
  TRACK 12 AUDIO
    TITLE "4:cjc114_0517"
    INDEX 01 00:09:65
  TRACK 13 AUDIO
    TITLE "0:"
    INDEX 01 00:13:43
  TRACK 14 AUDIO
    TITLE "2:cjc114_0518"
    INDEX 01 00:14:17
  TRACK 15 AUDIO
    TITLE "0:"
    INDEX 01 00:15:23
  TRACK 16 AUDIO
    TITLE "3:cjc114_0519"
    INDEX 01 00:15:46
  TRACK 17 AUDIO
    TITLE "0:"
    INDEX 01 00:16:48
  TRACK 18 AUDIO
    TITLE "4:cjc114_0520"
    INDEX 01 00:17:00
  TRACK 19 AUDIO
    TITLE "0:"
    INDEX 01 00:20:16
  TRACK 20 AUDIO
    TITLE "2:cjc114_0521"
    INDEX 01 00:20:67
  TRACK 21 AUDIO
    TITLE "0:"
    INDEX 01 00:21:72
  TRACK 22 AUDIO
    TITLE "3:cjc114_0522"
    INDEX 01 00:22:23
  TRACK 23 AUDIO
    TITLE "0:"
    INDEX 01 00:23:51
  TRACK 24 AUDIO
    TITLE "4:cjc114_0523"
    INDEX 01 00:24:02
  TRACK 25 AUDIO
    TITLE "0:"
    INDEX 01 00:29:36
  TRACK 26 AUDIO
    TITLE "2:cjc114_0524"
    INDEX 01 00:30:12
  TRACK 27 AUDIO
    TITLE "0:"
    INDEX 01 00:31:12
  TRACK 28 AUDIO
    TITLE "3:cjc114_0525"
    INDEX 01 00:31:37
  TRACK 29 AUDIO
    TITLE "0:"
    INDEX 01 00:32:56
  TRACK 30 AUDIO
    TITLE "4:cjc114_0526"
    INDEX 01 00:33:05
  TRACK 31 AUDIO
    TITLE "0:"
    INDEX 01 00:36:29
  TRACK 32 AUDIO
    TITLE "2:cjc114_0527"
    INDEX 01 00:37:05
  TRACK 33 AUDIO
    TITLE "0:"
    INDEX 01 00:38:04
  TRACK 34 AUDIO
    TITLE "3:cjc114_0528"
    INDEX 01 00:38:30
  TRACK 35 AUDIO
    TITLE "0:"
    INDEX 01 00:39:39
  TRACK 36 AUDIO
    TITLE "4:cjc114_0529"
    INDEX 01 00:39:62
  TRACK 37 AUDIO
    TITLE "0:"
    INDEX 01 00:43:31
  TRACK 38 AUDIO
    TITLE "2:cjc114_0530"
    INDEX 01 00:44:09
  TRACK 39 AUDIO
    TITLE "0:"
    INDEX 01 00:45:06
  TRACK 40 AUDIO
    TITLE "3:cjc114_0531"
    INDEX 01 00:45:33
  TRACK 41 AUDIO
    TITLE "0:"
    INDEX 01 00:48:30
  TRACK 42 AUDIO
    TITLE "4:cjc114_0532"
    INDEX 01 00:48:59
  TRACK 43 AUDIO
    TITLE "0:"
    INDEX 01 00:52:04
  TRACK 44 AUDIO
    TITLE "2:cjc114_0533"
    INDEX 01 00:52:57
  TRACK 45 AUDIO
    TITLE "0:"
    INDEX 01 00:53:60
  TRACK 46 AUDIO
    TITLE "3:cjc114_0534"
    INDEX 01 00:54:13
  TRACK 47 AUDIO
    TITLE "0:"
    INDEX 01 00:56:59
  TRACK 48 AUDIO
    TITLE "4:cjc114_0535"
    INDEX 01 00:57:11
  TRACK 49 AUDIO
    TITLE "0:"
    INDEX 01 01:01:27
  TRACK 50 AUDIO
    TITLE "2:cjc114_0536"
    INDEX 01 01:02:06
  TRACK 51 AUDIO
    TITLE "0:"
    INDEX 01 01:03:20
  TRACK 52 AUDIO
    TITLE "3:cjc114_0537"
    INDEX 01 01:03:49
  TRACK 53 AUDIO
    TITLE "0:"
    INDEX 01 01:06:45
  TRACK 54 AUDIO
    TITLE "4:cjc114_0538"
    INDEX 01 01:06:73
  TRACK 55 AUDIO
    TITLE "0:"
    INDEX 01 01:11:45
  TRACK 56 AUDIO
    TITLE "2:cjc114_0539"
    INDEX 01 01:12:30
  TRACK 57 AUDIO
    TITLE "0:"
    INDEX 01 01:13:49
  TRACK 58 AUDIO
    TITLE "3:cjc114_0540"
    INDEX 01 01:14:02
  TRACK 59 AUDIO
    TITLE "0:"
    INDEX 01 01:17:06
  TRACK 60 AUDIO
    TITLE "4:cjc114_0541"
    INDEX 01 01:17:32
  TRACK 61 AUDIO
    TITLE "0:"
    INDEX 01 01:21:69
  TRACK 62 AUDIO
    TITLE "2:cjc114_0542"
    INDEX 01 01:22:54
  TRACK 63 AUDIO
    TITLE "0:"
    INDEX 01 01:23:56
  TRACK 64 AUDIO
    TITLE "3:cjc114_0543"
    INDEX 01 01:24:10
  TRACK 65 AUDIO
    TITLE "0:"
    INDEX 01 01:27:03
  TRACK 66 AUDIO
    TITLE "4:cjc114_0544"
    INDEX 01 01:27:30
  TRACK 67 AUDIO
    TITLE "0:"
    INDEX 01 01:30:44
